<svg xmlns="http://www.w3.org/2000/svg" viewBox="0 0 108.19 108.19"><defs><style>.cls-1{fill:#6ac9c9;}.cls-2{fill:#fff;}</style></defs><title>Asset 8</title><g id="Layer_2" data-name="Layer 2"><g id="Layer_1-2" data-name="Layer 1"><circle class="cls-1" cx="54.09" cy="54.09" r="54.09"/><path class="cls-2" d="M51.4,79.05c0-1.79,0-3.5,0-5.2a1.37,1.37,0,0,0-.51-.83,45.19,45.19,0,0,1-8.25-9.37,1.76,1.76,0,0,0-1-.65C36,61.88,31,59.52,27.21,55.05A27.24,27.24,0,0,1,21.52,42.9c-.41-1.89-.66-3.82-.89-5.75-.16-1.39.57-2.12,2-2.12H33.48l-.58-6.48H30.34c-1.68,0-2.61-.79-2.62-2.21s.9-2.18,2.63-2.18H81.06a12.2,12.2,0,0,1,1.48.05,2.08,2.08,0,0,1,1.91,2.27,2,2,0,0,1-2,2.07c-.91,0-1.84,0-2.82,0L79,35h1.12c3.19,0,6.38,0,9.57,0,1.32,0,2,.7,1.85,1.92A39.33,39.33,0,0,1,88,49.51,23.68,23.68,0,0,1,71.23,62.63a2,2,0,0,0-1.13.78,43,43,0,0,1-8.88,10,1.06,1.06,0,0,0-.43.67c0,1.65,0,3.3,0,5,3.23.49,5.07,2.31,5.41,5.64.35,0,.68.06,1,.06H79c1.28,0,1.54.26,1.55,1.51,0,2.8,0,2.8-2.81,2.8H76.44v1.63c0,1.21-.33,1.55-1.54,1.55H37.68c-1.64,0-1.89-.26-1.89-1.93V89.05H33.67c-1.1,0-1.4-.32-1.41-1.39q0-.78,0-1.56c0-1.08.26-1.35,1.33-1.36H46A5.91,5.91,0,0,1,51.4,79.05ZM24.62,38.38c.77,6,2.44,11.57,6.84,15.94a19,19,0,0,0,8.59,4.82,67.07,67.07,0,0,1-6.21-20.76ZM72.88,58.51a2.68,2.68,0,0,0,.4,0,19.15,19.15,0,0,0,6.45-3.81,23,23,0,0,0,6.46-10.82c.53-1.75.9-3.56,1.35-5.39a4.37,4.37,0,0,0-.59-.11c-2.58,0-5.15,0-7.73,0-.54,0-.66.24-.74.72a67.82,67.82,0,0,1-5.48,19A3.68,3.68,0,0,0,72.88,58.51ZM40.27,36.33c0,.27.09.56.11.84a58.31,58.31,0,0,0,5.28,20.12c.72,1.54,1.56,3,2.4,4.52a1.44,1.44,0,0,0,2.11.46c.69-.49.73-1.21.11-2a2.74,2.74,0,0,1-.23-.36,54.08,54.08,0,0,1-6.13-17.34c-.33-2-.55-4.13-.83-6.19a1.49,1.49,0,0,0-1.64-1.32A1.2,1.2,0,0,0,40.27,36.33Z"/></g></g></svg>