<svg xmlns="http://www.w3.org/2000/svg" viewBox="0 0 108.19 108.19"><defs><style>.cls-1{fill:#6ac9c9;}.cls-2{fill:#fff;}</style></defs><title>Asset 1</title><g id="Layer_2" data-name="Layer 2"><g id="Layer_1-2" data-name="Layer 1"><circle class="cls-1" cx="54.09" cy="54.09" r="54.09"/><path class="cls-2" d="M66,22.09c1.44.3,2.89.53,4.31.89A33.42,33.42,0,0,1,83,28.69a10.36,10.36,0,0,1,3,3.58c-4.15,3.42-5.44,8.39-7.16,13.13C77.64,48.69,76.59,52,74.67,55c-2.64,4-6.43,6.69-10.73,8.68-1.6.73-3.24,1.39-4.9,2-2.35.81-4.11,2.44-5.92,4a23.78,23.78,0,0,1-6.6,4.44c-3.54,1.43-7.2.35-9-2.75-1.39-2.36-1-4.74.29-7a18.06,18.06,0,0,1,6.76-6.23c1.79-1.06,3.69-1.91,5.54-2.87a2.46,2.46,0,0,0,.73-.55c2.52-3.06,5-6.14,7.52-9.21a.63.63,0,0,0,.06-.18c-3.89.55-7.8,1.29-11.38-1.18-3.9,5.25-3.9,5.25-7.51,6.8.43,1.66.83,3.29,1.26,4.92a1,1,0,0,1-.52,1.27c-3.21,2.1-5,5.22-6.37,8.86-.22-.43-.44-.8-.61-1.19A118.45,118.45,0,0,1,28.34,50a5.34,5.34,0,0,1,.46-3.69A64.84,64.84,0,0,1,34.91,36c.56-.81,1.18-1.57,1.73-2.38A6.8,6.8,0,0,1,40.09,31c5.18-1.81,10.36-3.6,15.52-5.44,2.63-.94,5.23-2,7.83-3a4.23,4.23,0,0,0,.77-.5Z"/><path class="cls-2" d="M55.22,71.49c3.9,3.71,5,11.92.09,17.86A14.17,14.17,0,0,1,35.85,91c-6.08-5.2-6.48-13.64-1.63-19.8.25.4.5.78.74,1.18,2.92,4.82,7.79,6.35,13,4.12a25.43,25.43,0,0,0,6.55-4.35Z"/></g></g></svg>