<svg xmlns="http://www.w3.org/2000/svg" xmlns:xlink="http://www.w3.org/1999/xlink" viewBox="0 0 40.48 40.48"><defs><style>.cls-1{fill:url(#linear-gradient);}.cls-2{fill:#fff;fill-rule:evenodd;}</style><linearGradient id="linear-gradient" y1="20.24" x2="40.48" y2="20.24" gradientUnits="userSpaceOnUse"><stop offset="0.08" stop-color="#6ac9c9"/><stop offset="0.29" stop-color="#70cbcd"/><stop offset="0.57" stop-color="#82d1d8"/><stop offset="0.9" stop-color="#9fdbe9"/><stop offset="1" stop-color="#aadff0"/></linearGradient></defs><title>Asset 1</title><g id="Layer_2" data-name="Layer 2"><g id="Layer_1-2" data-name="Layer 1"><circle class="cls-1" cx="20.24" cy="20.24" r="20.24"/><path class="cls-2" d="M17,26.42c0-1.94,0-3.89,0-5.83,0-.33-.09-.43-.42-.42-.61,0-1.22,0-1.82,0-.25,0-.34-.06-.34-.32,0-1.21,0-2.43,0-3.64,0-.23.06-.31.3-.31.62,0,1.24,0,1.86,0,.36,0,.43-.11.43-.45,0-.92,0-1.84,0-2.77a5.24,5.24,0,0,1,1-3.1,4.29,4.29,0,0,1,3.45-1.75c1.43-.06,2.87,0,4.3,0,.2,0,.26.06.26.26,0,1.23,0,2.45,0,3.68,0,.22-.07.29-.28.28H23.69a1.37,1.37,0,0,0-1.53,1.38c0,.73,0,1.47,0,2.2,0,.26.15.24.33.24,1,0,2.09,0,3.14,0,.31,0,.41.07.37.39-.13,1.22-.24,2.44-.35,3.66,0,.28-.15.33-.39.33H22.74c-.59,0-.53-.08-.53.52q0,5.72,0,11.42c0,.41-.1.51-.5.5q-2.13,0-4.26,0c-.41,0-.47-.13-.47-.48,0-1.92,0-3.84,0-5.76Z"/></g></g></svg>