<svg xmlns="http://www.w3.org/2000/svg" xmlns:xlink="http://www.w3.org/1999/xlink" viewBox="0 0 40.48 40.48"><defs><style>.cls-1{fill:url(#linear-gradient);}.cls-2{fill:#fff;}</style><linearGradient id="linear-gradient" y1="20.24" x2="40.48" y2="20.24" gradientUnits="userSpaceOnUse"><stop offset="0.08" stop-color="#6ac9c9"/><stop offset="0.29" stop-color="#70cbcd"/><stop offset="0.57" stop-color="#82d1d8"/><stop offset="0.9" stop-color="#9fdbe9"/><stop offset="1" stop-color="#aadff0"/></linearGradient></defs><title>Asset 4</title><g id="Layer_2" data-name="Layer 2"><g id="Layer_1-2" data-name="Layer 1"><circle class="cls-1" cx="20.24" cy="20.24" r="20.24"/><path class="cls-2" d="M20.24,7.85c-3.37,0-3.79,0-5.11.07a9,9,0,0,0-3,.58A6.36,6.36,0,0,0,8.5,12.12a9,9,0,0,0-.58,3c-.06,1.32-.07,1.74-.07,5.11s0,3.79.07,5.11a9,9,0,0,0,.58,3,6,6,0,0,0,1.43,2.19A6.14,6.14,0,0,0,12.12,32a9.26,9.26,0,0,0,3,.58c1.32.06,1.74.07,5.11.07s3.79,0,5.11-.07a9.26,9.26,0,0,0,3-.58A6.36,6.36,0,0,0,32,28.36a9.26,9.26,0,0,0,.58-3c.06-1.32.07-1.75.07-5.11s0-3.79-.07-5.11a9.26,9.26,0,0,0-.58-3,6.14,6.14,0,0,0-1.43-2.19A6,6,0,0,0,28.36,8.5a9,9,0,0,0-3-.58c-1.32-.06-1.75-.07-5.11-.07Zm0,2.23c3.31,0,3.7,0,5,.07a7,7,0,0,1,2.3.43,3.73,3.73,0,0,1,1.42.93,3.9,3.9,0,0,1,.93,1.42,6.77,6.77,0,0,1,.42,2.3c.06,1.31.08,1.7.08,5s0,3.7-.08,5a6.82,6.82,0,0,1-.42,2.3,4.16,4.16,0,0,1-2.35,2.35,6.82,6.82,0,0,1-2.3.42c-1.31.06-1.7.08-5,.08s-3.7,0-5-.08a6.77,6.77,0,0,1-2.3-.42A3.9,3.9,0,0,1,11.51,29a3.73,3.73,0,0,1-.93-1.42,7,7,0,0,1-.43-2.3c-.06-1.31-.07-1.7-.07-5s0-3.7.07-5a7,7,0,0,1,.43-2.3,3.66,3.66,0,0,1,.93-1.42,3.66,3.66,0,0,1,1.42-.93,7,7,0,0,1,2.3-.43c1.31-.06,1.7-.07,5-.07"/><path class="cls-2" d="M20.24,24.37a4.13,4.13,0,1,1,4.13-4.13,4.13,4.13,0,0,1-4.13,4.13Zm0-10.5a6.37,6.37,0,1,0,6.36,6.37,6.37,6.37,0,0,0-6.36-6.37Z"/><path class="cls-2" d="M28.34,13.62a1.49,1.49,0,1,1-3,0,1.49,1.49,0,0,1,3,0Z"/></g></g></svg>