<svg xmlns="http://www.w3.org/2000/svg" viewBox="0 0 108.19 108.19"><defs><style>.cls-1{fill:#6ac9c9;}.cls-2{fill:#fff;}</style></defs><title>Asset 7</title><g id="Layer_2" data-name="Layer 2"><g id="Layer_1-2" data-name="Layer 1"><circle class="cls-1" cx="54.09" cy="54.09" r="54.09"/><path class="cls-2" d="M44.28,51.19A16.33,16.33,0,0,1,42.9,27.36a15.6,15.6,0,0,1,21.59-.8A16.4,16.4,0,0,1,64,51.21c.68.33,1.35.63,2,1,8,4.35,12.74,11,14,20a69.36,69.36,0,0,1,.34,9.13A2.59,2.59,0,0,1,77.59,84c-.77,0-1.54,0-2.31,0q-22.05,0-44.09,0A4.31,4.31,0,0,1,29,83.35a2.39,2.39,0,0,1-1-1.67c0-4-.37-8.06.66-12A26.48,26.48,0,0,1,43.48,51.57ZM75,78.55c.43-9.41-2.85-16.92-11.23-21.41-7.76-4.17-15.49-3.4-22.47,2C35,64,32.7,70.7,33.21,78.55ZM43.64,38.64A10.46,10.46,0,1,0,54.19,28,10.55,10.55,0,0,0,43.64,38.64Z"/><path class="cls-2" d="M70.67,30.34l-.56-3.27c2.86-1,8.86,0,12.66,4.41a14.31,14.31,0,0,1,.12,18.41A22.16,22.16,0,0,1,94.22,69.08c0,1.43,0,2.85,0,4.27a3.67,3.67,0,0,1-3.42,3.84c-1.59.12-3.19,0-4.85,0V73.77H90c.4,0,.79,0,.79-.56,0-3.43.14-6.87-1.08-10.18a18.36,18.36,0,0,0-10-10.82c-.66-.3-1.29-.59-1.49-1.39a1.93,1.93,0,0,1,.86-2.06,10.61,10.61,0,0,0-1-16.85A10,10,0,0,0,70.67,30.34Z"/><path class="cls-2" d="M25.26,49.9c-4.06-5.73-4.54-11.57-.55-17.44A13.16,13.16,0,0,1,38.09,27l-.55,3.32c-4.4-.47-7.87,1-10.31,4.54a10.51,10.51,0,0,0,1.49,13.55l.53.48c1.26,1.15,1.06,2.53-.5,3.21A18.6,18.6,0,0,0,17.42,68.94c0,1.33,0,2.66,0,4,0,.68.23.86.88.84,1.32,0,2.65,0,4.07,0,0,1.06,0,2,0,3,0,.17-.36.45-.55.46-1.42,0-2.85.07-4.27,0a3.48,3.48,0,0,1-3.42-3c-.28-4.63-.26-9.24,1.66-13.61a22.11,22.11,0,0,1,8.72-10.15Z"/></g></g></svg>