<svg xmlns="http://www.w3.org/2000/svg" viewBox="0 0 264.13 97.01"><defs><style>.cls-1{fill:#333132;}.cls-2{fill:#6ac9c9;}</style></defs><title>Asset 1</title><g id="Layer_2" data-name="Layer 2"><g id="Layer_1-2" data-name="Layer 1"><path class="cls-1" d="M0,2.63A2.63,2.63,0,0,1,2.63,0H36c17,0,31,13.86,31,30.63a31.17,31.17,0,0,1-30.9,31.18H21.62V94.37A2.73,2.73,0,0,1,19,97H2.63A2.63,2.63,0,0,1,0,94.37ZM34.78,41.57A10.88,10.88,0,0,0,45.73,30.63c0-5.82-5-10.26-10.95-10.26H21.62v21.2Z"/><path class="cls-1" d="M92.29,2.63A2.61,2.61,0,0,1,94.79,0H128.6c26.75,0,48.64,21.76,48.64,48.36A48.7,48.7,0,0,1,128.6,97H94.79a2.61,2.61,0,0,1-2.5-2.64ZM127.22,76.5c15.66,0,27-12.34,27-28.14s-11.36-28-27-28H113.91V76.5Z"/><path class="cls-2" d="M196.92,2.63A2.63,2.63,0,0,1,199.55,0h32.29c16.35,0,29.8,11.22,29.8,25.78,0,10.67-9.57,18.43-16.08,21.89,7.35,3,18.57,9.84,18.57,22.59,0,15.52-13.72,26.75-30.21,26.75H199.55a2.63,2.63,0,0,1-2.63-2.64Zm32.43,36.73a9.89,9.89,0,0,0,9.7-10,9.4,9.4,0,0,0-9.7-9.42H218.54v19.4Zm1.8,37.83a10.06,10.06,0,0,0,10-10.12c0-5.54-6-9.7-11.37-9.7H218.54V77.19Z"/></g></g></svg>